<svg width="50" height="50" viewBox="0 0 50 50" fill="none" xmlns="http://www.w3.org/2000/svg">
<path d="M22.917 35.417H27.0837V22.917H22.917V35.417ZM26.4847 18.1514C26.884 17.7521 27.0837 17.2573 27.0837 16.667C27.0837 16.0767 26.884 15.5819 26.4847 15.1826C26.0854 14.7833 25.5906 14.5837 25.0003 14.5837C24.41 14.5837 23.9153 14.7833 23.516 15.1826C23.1166 15.5819 22.917 16.0767 22.917 16.667C22.917 17.2573 23.1166 17.7521 23.516 18.1514C23.9153 18.5507 24.41 18.7503 25.0003 18.7503C25.5906 18.7503 26.0854 18.5507 26.4847 18.1514ZM25.0003 45.8337C22.1184 45.8337 19.41 45.2868 16.8753 44.193C14.3406 43.0993 12.1357 41.6149 10.2607 39.7399C8.38574 37.8649 6.90137 35.66 5.80762 33.1253C4.71387 30.5906 4.16699 27.8823 4.16699 25.0003C4.16699 22.1184 4.71387 19.41 5.80762 16.8753C6.90137 14.3406 8.38574 12.1357 10.2607 10.2607C12.1357 8.38574 14.3406 6.90137 16.8753 5.80762C19.41 4.71387 22.1184 4.16699 25.0003 4.16699C27.8823 4.16699 30.5906 4.71387 33.1253 5.80762C35.66 6.90137 37.8649 8.38574 39.7399 10.2607C41.6149 12.1357 43.0993 14.3406 44.193 16.8753C45.2868 19.41 45.8337 22.1184 45.8337 25.0003C45.8337 27.8823 45.2868 30.5906 44.193 33.1253C43.0993 35.66 41.6149 37.8649 39.7399 39.7399C37.8649 41.6149 35.66 43.0993 33.1253 44.193C30.5906 45.2868 27.8823 45.8337 25.0003 45.8337ZM25.0003 41.667C29.6531 41.667 33.5941 40.0524 36.8232 36.8232C40.0524 33.5941 41.667 29.6531 41.667 25.0003C41.667 20.3475 40.0524 16.4066 36.8232 13.1774C33.5941 9.94824 29.6531 8.33366 25.0003 8.33366C20.3475 8.33366 16.4066 9.94824 13.1774 13.1774C9.94824 16.4066 8.33366 20.3475 8.33366 25.0003C8.33366 29.6531 9.94824 33.5941 13.1774 36.8232C16.4066 40.0524 20.3475 41.667 25.0003 41.667Z" fill="#660066"/>
</svg>
