<svg width="50" height="50" viewBox="0 0 50 50" fill="none" xmlns="http://www.w3.org/2000/svg">
<g clip-path="url(#clip0_819_1553)">
<path d="M29.6145 1.85846C31.8101 3.61739 32.9443 6.15862 34.2089 8.60857C35.2122 10.5225 36.2708 12.4064 37.3197 14.2956C37.9968 15.5171 38.67 16.7407 39.3435 17.9641C40.465 20.0005 41.5882 22.0359 42.7126 24.0707C43.1284 24.8233 43.5441 25.5759 43.9598 26.3285C44.2216 26.8024 44.4836 27.2762 44.7456 27.75C45.3513 28.8454 45.9554 29.9416 46.5562 31.0397C47.0449 31.9265 47.5394 32.807 48.0434 33.6849C48.2913 34.1251 48.5393 34.5653 48.7948 35.0189C49.0186 35.4097 49.2425 35.8006 49.4732 36.2033C50.4343 38.3955 50.4431 40.5476 50.0002 42.8741C49.0924 45.1022 47.8537 46.441 45.744 47.6158C44.207 48.2449 42.6498 48.1757 41.0099 48.1668C40.6265 48.1708 40.2432 48.1748 39.8482 48.1789C38.5863 48.1897 37.3247 48.189 36.0628 48.1872C35.1818 48.1902 34.3009 48.1936 33.4199 48.1973C31.5752 48.2032 29.7306 48.2029 27.8858 48.1988C25.5271 48.1943 23.1689 48.2075 20.8103 48.2257C18.9913 48.2372 17.1724 48.2379 15.3533 48.2354C14.484 48.2358 13.6146 48.2399 12.7454 48.2478C11.5271 48.2575 10.3098 48.2521 9.09158 48.2431C8.55813 48.252 8.55813 48.252 8.0139 48.2612C5.32497 48.2173 3.60374 47.3435 1.5627 45.6085C-0.221891 43.5192 -0.212918 41.5911 -0.180328 38.8944C0.130674 36.3292 1.31726 34.3552 2.61251 32.1563C2.88263 31.6783 3.15168 31.1997 3.4197 30.7205C4.09467 29.5194 4.78211 28.326 5.47389 27.1346C6.25748 25.78 7.02239 24.4148 7.79086 23.0516C8.19604 22.3343 8.60301 21.618 9.01176 20.9028C10.1942 18.829 11.3427 16.7407 12.4605 14.6316C12.59 14.3877 12.7194 14.1439 12.8528 13.8926C13.4829 12.704 14.1096 11.5138 14.7318 10.321C18.8658 2.48853 18.8658 2.48853 21.4037 1.29694C24.087 0.613057 27.1336 0.506868 29.6145 1.85846ZM20.9355 8.22195C20.3183 9.3305 19.7268 10.4498 19.1408 11.5753C18.6889 12.4271 18.2362 13.2785 17.7828 14.1296C17.5536 14.5607 17.3243 14.9919 17.0881 15.4361C16.0624 17.3412 14.9905 19.2188 13.9162 21.0967C11.6712 25.0336 9.52263 29.0182 7.39709 33.0203C7.16263 33.4613 6.92817 33.9023 6.6866 34.3566C6.47959 34.7474 6.27257 35.1382 6.05928 35.5409C5.66315 36.2678 5.24903 36.9851 4.81836 37.692C4.02979 39.0311 3.96816 40.1947 4.29708 41.7022C5.35148 43.0788 6.12662 43.7356 7.8127 44.046C8.91235 44.0869 10.0025 44.1074 11.1022 44.1089C11.5989 44.1118 11.5989 44.1118 12.1056 44.1148C13.2 44.1205 14.2943 44.1231 15.3887 44.1253C16.1506 44.1276 16.9125 44.1298 17.6744 44.1321C19.2719 44.1362 20.8694 44.1384 22.467 44.1398C24.5108 44.1419 26.5545 44.1513 28.5983 44.1624C30.1723 44.1697 31.7463 44.1718 33.3204 44.1724C34.0737 44.1735 34.827 44.1767 35.5802 44.1818C36.6358 44.1885 37.691 44.1877 38.7466 44.1852C39.0557 44.1888 39.3648 44.1924 39.6834 44.1961C41.7095 44.1809 43.1306 43.8444 44.9221 42.8741C45.9091 41.3936 46.0073 40.2876 45.7033 38.5772C45.0933 37.061 44.2967 35.6703 43.4816 34.2559C43.252 33.8449 43.0223 33.4339 42.7857 33.0104C42.0722 31.7371 41.3497 30.4693 40.6252 29.2022C40.2042 28.4603 39.7836 27.7182 39.3633 26.976C38.748 25.8892 38.1322 24.8028 37.5136 23.7179C36.3155 21.6091 35.1472 19.4869 34.0075 17.3461C33.8122 16.9795 33.8122 16.9795 33.613 16.6056C32.9785 15.4125 32.3469 14.2179 31.7188 13.0214C29.7606 8.65061 29.7606 8.65061 26.5627 5.37408C23.6359 5.08621 22.4826 5.70076 20.9355 8.22195Z" fill="#C55F0F"/>
<path d="M25.0002 15.1367C26.172 15.2344 26.172 15.2344 26.9533 16.0156C27.0313 17.0708 27.0626 18.0851 27.057 19.1406C27.0578 19.4498 27.0585 19.759 27.0593 20.0775C27.0598 20.7316 27.0584 21.3857 27.0551 22.0398C27.051 23.0429 27.0551 24.0457 27.0601 25.0488C27.0596 25.6836 27.0586 26.3184 27.057 26.9531C27.0586 27.2542 27.0602 27.5554 27.0618 27.8656C27.0431 29.9883 27.0431 29.9883 26.172 30.8594C25.0002 30.957 25.0002 30.957 23.8283 30.8594C22.8339 29.865 22.9505 29.222 22.9385 27.8656C22.9401 27.5645 22.9416 27.2634 22.9433 26.9531C22.9425 26.644 22.9418 26.3348 22.941 26.0162C22.9405 25.3621 22.9419 24.708 22.9452 24.054C22.9494 23.0508 22.9452 22.048 22.9402 21.0449C22.9407 20.4102 22.9417 19.7754 22.9433 19.1406C22.9417 18.8395 22.9401 18.5384 22.9385 18.2281C22.9643 15.3064 22.9643 15.3064 25.0002 15.1367Z" fill="#C55F0F"/>
<path d="M25 34.668C26.1719 34.7656 26.1719 34.7656 26.9531 35.5469C27.0508 36.7188 27.0508 36.7188 26.9531 37.8906C26.1719 38.6719 26.1719 38.6719 25 38.7695C23.8281 38.6719 23.8281 38.6719 23.0469 37.8906C22.9492 36.7188 22.9492 36.7188 23.0469 35.5469C23.8281 34.7656 23.8281 34.7656 25 34.668Z" fill="#C55F0F"/>
</g>
<defs>
<clipPath id="clip0_819_1553">
<rect width="50" height="50" fill="white"/>
</clipPath>
</defs>
</svg>
